<svg xmlns="http://www.w3.org/2000/svg" viewBox="0 0 511.999 511.999">
  <path d="M503.191 381.957c-.055-.096-.111-.19-.168-.286L312.267 63.218c-.019-.033-.04-.065-.059-.098-9.104-15.01-23.51-25.577-40.561-29.752-17.053-4.178-34.709-1.461-49.72 7.644-9.003 5.462-16.648 13.107-22.108 22.109-.019.032-.039.064-.058.097L9.004 381.669c-.057.096-.113.191-.168.287-8.779 15.203-11.112 32.915-6.569 49.872 4.543 16.958 15.416 31.131 30.62 39.91 9.76 5.635 20.875 8.679 32.143 8.804.076.001.152.001.228.001h381.513c.076 0 .152 0 .227.001 36.237-.399 65.395-30.205 64.997-66.444-.125-11.269-3.168-22.385-8.804-32.143zm-56.552 57.224H65.389c-4.145-.062-8.229-1.188-11.82-3.263-5.635-3.253-9.665-8.507-11.349-14.792-1.672-6.24-.832-12.755 2.365-18.364L235.211 84.53c2.021-3.319 4.846-6.138 8.169-8.154 5.564-3.374 12.11-4.381 18.429-2.833 6.305 1.544 11.633 5.444 15.009 10.986L467.44 402.76c2.045 3.588 3.149 7.663 3.194 11.793.149 13.401-10.608 24.428-23.995 24.628z"/>
</svg>
